<svg xmlns="http://www.w3.org/2000/svg" xmlns:xlink="http://www.w3.org/1999/xlink" width="500" zoomAndPan="magnify" viewBox="0 0 375 374.999991" height="500" preserveAspectRatio="xMidYMid meet" version="1.0"><path fill="#2e2e2e" d="M 269.445312 325.242188 C 259.976562 323.757812 251.605469 320.34375 228.421875 308.355469 C 217.019531 302.464844 213.328125 300.8125 211.679688 300.8125 C 210.023438 300.8125 206.613281 299.332031 196.535156 294.101562 C 189.375 290.417969 182.65625 286.953125 181.613281 286.347656 C 180.566406 285.738281 175.605469 283.15625 170.597656 280.570312 C 156.113281 273.199219 150.605469 269.675781 146.589844 265.5 C 140.527344 259.0625 136.621094 248.828125 135.40625 236.230469 C 134.640625 228.46875 134.640625 132.472656 135.355469 123.394531 C 136.84375 105.957031 143.230469 93.90625 154.574219 87.195312 C 157.050781 85.710938 166.082031 80.871094 174.617188 76.414062 C 188.109375 69.375 190.3125 68.382812 191.523438 68.824219 C 192.957031 69.375 192.84375 69.425781 213 58.753906 C 223.574219 53.199219 245.4375 42.25 250.722656 39.9375 C 260.964844 35.429688 269.828125 32.953125 275.835938 32.898438 C 282.992188 32.898438 292.351562 36.640625 298.136719 41.921875 C 305.847656 48.90625 308.875 57.214844 310.746094 76.359375 C 311.410156 83.292969 311.570312 95.777344 311.570312 142.097656 C 311.628906 191.503906 311.738281 199.480469 312.398438 200.363281 C 313.113281 201.296875 313.226562 206.136719 313.226562 233.367188 C 313.171875 277.488281 312.175781 296.746094 309.867188 297.347656 C 309.257812 297.515625 308.433594 299.21875 307.390625 302.300781 C 305.515625 308.019531 298.851562 318.421875 297.144531 318.421875 C 296.871094 318.421875 296.097656 318.914062 295.4375 319.574219 C 292.738281 322.105469 287.011719 324.417969 281.285156 325.292969 C 275.007812 326.230469 275.890625 326.230469 269.445312 325.242188 Z M 269.445312 325.242188 " fill-opacity="1" fill-rule="nonzero"/><path fill="#d9d9d9" d="M 99.558594 301.863281 C 89.535156 301.527344 85.410156 301.148438 77.144531 299.933594 C 75.328125 299.660156 74.777344 299.332031 74.667969 298.394531 C 74.554688 297.625 74.007812 297.1875 73.125 297.074219 C 70.316406 296.691406 62.664062 292.617188 59.964844 290.085938 C 52.367188 282.992188 48.402344 274.136719 48.347656 264.230469 C 48.347656 252.347656 51.8125 242.609375 69.109375 206.855469 C 69.875 205.257812 70.484375 203.273438 70.484375 202.453125 C 70.429688 199.648438 71.363281 197.390625 79.242188 181.050781 C 81.332031 176.757812 83.039062 173.128906 83.039062 172.964844 C 83.039062 172.796875 87.113281 164.382812 92.179688 154.203125 C 100.660156 136.929688 101.484375 135.5 104.679688 132.308594 C 110.574219 126.3125 119.933594 121.855469 129.792969 120.148438 C 132.65625 119.65625 135.628906 119.269531 136.34375 119.269531 C 137.558594 119.269531 137.664062 119.433594 137.28125 120.8125 C 136.507812 123.503906 136.289062 225.445312 137.003906 233.585938 C 138.164062 247.011719 141.960938 257.136719 148.238281 263.84375 C 152.261719 268.027344 157.765625 271.550781 172.25 278.917969 C 177.261719 281.503906 182.214844 284.089844 183.261719 284.695312 C 184.308594 285.304688 191.632812 289.097656 199.511719 293.167969 L 213.828125 300.539062 L 190.859375 300.8125 C 173.515625 301.035156 167.734375 301.253906 167.183594 301.808594 C 166.6875 302.300781 160.300781 302.464844 138.65625 302.355469 C 123.351562 302.300781 105.78125 302.082031 99.558594 301.863281 Z M 99.558594 301.863281 " fill-opacity="1" fill-rule="nonzero"/><path fill="#d9d9d9" d="M 308.820312 297.074219 C 308.820312 296.800781 309.039062 295.257812 309.367188 293.71875 C 310.800781 286.125 311.1875 276.667969 311.515625 239.203125 L 311.847656 199.3125 L 317.023438 209.765625 C 327.269531 230.621094 333.65625 245.691406 335.253906 252.675781 C 337.949219 264.617188 336.628906 274.136719 331.121094 282.660156 C 327.652344 287.996094 322.863281 292.230469 317.519531 294.761719 C 312.730469 296.964844 308.820312 298.007812 308.820312 297.074219 Z M 308.820312 297.074219 " fill-opacity="1" fill-rule="nonzero"/><path fill="#545454" d="M 99.171875 322.546875 C 88.546875 320.238281 79.292969 311.542969 75.273438 300.152344 C 74.890625 298.996094 74.722656 297.953125 74.835938 297.789062 C 74.996094 297.625 76.484375 297.789062 78.140625 298.0625 C 87.609375 299.933594 95.375 300.320312 131.335938 300.652344 C 161.839844 300.925781 167.734375 301.089844 167.238281 301.75 C 166.90625 302.136719 166.355469 302.464844 166.082031 302.464844 C 165.753906 302.464844 162.890625 303.730469 159.640625 305.269531 C 146.753906 311.542969 141.523438 313.964844 138.105469 315.339844 C 136.121094 316.164062 134.03125 317.042969 133.425781 317.320312 C 130.453125 318.695312 124.066406 320.839844 119.441406 322.046875 C 113.492188 323.589844 104.902344 323.8125 99.171875 322.546875 Z M 99.171875 322.546875 " fill-opacity="1" fill-rule="nonzero"/><path fill="#545454" d="M 70.484375 156.570312 C 70.589844 107.554688 71.363281 78.449219 72.792969 69.425781 C 75.714844 50.832031 83.535156 41.09375 99.28125 36.476562 C 103.359375 35.261719 111.175781 35.101562 116.082031 36.144531 C 125.660156 38.125 136.894531 42.855469 168.671875 58.039062 C 176.875 62 185.519531 66.128906 187.890625 67.230469 C 190.421875 68.4375 192.019531 69.480469 191.742188 69.761719 C 191.46875 70.035156 184.363281 73.828125 175.992188 78.175781 C 167.625 82.578125 158.757812 87.363281 156.226562 88.792969 C 150.332031 92.3125 145.59375 97.375 142.625 103.425781 C 140.308594 107.992188 137.558594 117.070312 137.558594 119.984375 C 137.558594 120.863281 137.335938 121.414062 137.0625 121.25 C 136.785156 121.085938 134.253906 121.304688 131.441406 121.800781 C 121.589844 123.503906 112.222656 128.019531 106.332031 133.957031 C 103.140625 137.148438 102.3125 138.578125 93.832031 155.851562 C 88.765625 166.03125 84.6875 174.449219 84.6875 174.613281 C 84.6875 174.78125 82.984375 178.410156 80.890625 182.703125 C 78.855469 186.992188 76.210938 192.492188 75.109375 194.914062 C 72.574219 200.46875 71.691406 202.011719 70.976562 202.230469 C 70.589844 202.339844 70.429688 188.421875 70.484375 156.570312 Z M 70.484375 156.570312 " fill-opacity="1" fill-rule="nonzero"/></svg>